<?xml version="1.0" encoding="UTF-8"?>
<svg id="Capa_1" xmlns="http://www.w3.org/2000/svg" version="1.1" viewBox="0 0 595.28 841.89">
  <!-- Generator: Adobe Illustrator 29.6.1, SVG Export Plug-In . SVG Version: 2.1.1 Build 9)  -->
  <defs>
    <style>
      .st0 {
        fill: #fff;
      }
    </style>
  </defs>
  <path class="st0" d="M449.63,318.9v343.1H142.23v-343.1h307.4ZM389.54,491.03v-62.7c.51-.11.59.17.87.45,2.26,2.28,5.57,4.05,8.2,5.93,2.09,1.5,3.27,3.48,6.17,3.77,7.5.77,13.08-2.22,13.49-10.31.15-3.02-.31-3.58-2.35-5.47-10.79-9.98-23.15-19.39-34.28-28.93-1.84-1.58-3.58-3.31-5.46-4.85l.02-50.75-.57-1.98c-.14-.17-2.32-.45-2.78-.48-7-.43-18.05-.54-24.99,0-.44.03-1.51.13-1.8.38-.05.04-.66,1.16-.66,1.23v24.67c0,.12.61.42.58.72-1.17.23-1.28-.89-1.87-1.46-1-.97-2.2-1.73-3.21-2.61-13.06-11.27-26.06-22.65-39.29-33.84-2.12-1.79-4.41-5.28-7.58-3.74-37.39,32.4-74.85,64.56-112.19,96.8-1.85,1.6-4.16,3.17-5.92,4.84-2.27,2.16-2.68,3.33-2.33,6.61.64,5.84,4.08,9.21,9.99,9.46,5.5.24,8-3.17,11.97-6.1l6.75-4.64-.29,66.62.58.43,93.9-124.23,93.04,120.17ZM293.46,450.69h-19.74c-.68,3.49-.61,7.06-.59,10.61.02,5.49.04,11.03.33,16.53.07,1.26-.95,3.45.98,3.65,5.78-.46,12.35.56,18.03,0,.97-.09,1.54-.15,1.59-1.31v-27.89s-.59-1.58-.59-1.58ZM319.01,450.69h-19.74c-.12,0-1.12,1.81-.88,2.17.55,8.57-.69,17.96,0,26.44.07.91.14,2.26,1.3,2.18,5.87-.47,12.55.57,18.32,0,.97-.09,1.54-.15,1.59-1.31v-27.89s-.59-1.58-.59-1.58ZM273.47,487.01l-.2,30.15,1.16.6,19.03-.16.59-1.15-.16-29.19-1.15-.59c-5.78.35-12-.42-17.73,0-.54.04-1.06.1-1.54.34ZM299.48,486.74l-1.09,1.52c.62,8.91-.78,18.82,0,27.6.08.91.14,1.9,1.3,1.89l19.32-.16.6-1.44c-.63-8.91.78-18.82,0-27.61-.08-.91-.14-1.9-1.3-1.89l-18.82.08ZM446.97,500.09c-.82-.39-.75.36-1.05.5-15.32,7.25-30.12,15.81-44.98,23.82-17.97,9.69-36.01,19.66-54.13,29.06-1.14.59-3.39,2.32-4.56,2.74-10.61,3.82-22.02-8.11-32.47-9.65-6.72-1-11.22.8-16.43,4.61-5.49,6.17-12.85,13.13-17.6,19.83-1.21,1.71-1.52,3.11-.79,5.14.61,1.69,1.71,2.12,3.19,2.85.16.08.17.43.45.55,1.14.47,3.89.39,5.06,0,6.89-2.29,11.44-9.9,18.59-11.9.24-.07.21-.5.42-.55.41-.1,1.8-.09,2.21,0,.21.05.2.47.43.55,4.64,1.5,6.54,5.1,9.78,8.45,7.27,7.55,14.37,15.17,21.54,22.73l8.89,10.26c2.1,1.19,3.85-.4,5.33-1.76.77-.7,1.88-2.29,2.73-2.93,2.68-2.01,8.34-3.64,11.66-5.13,24.89-11.17,49.94-22.79,75.06-33.27,1.82-.76,4.09-1.62,5.81-2.68.7-.43,1.58-.23,1.96-1.46v-60.12s-1.08-1.67-1.08-1.67ZM148.81,502.17c-1.8-.86-4.76-2.63-5.13.61v58.36c.58,3,4.45,3.27,6.74,4.23,24.46,10.17,48.81,21.65,73.16,32.28,5.08,2.21,14.78,5.08,18.2,9.07.58.68,1.31,1.58,1.46,2.46.89-.75,1.49-1.97,2.31-2.77,6.09-5.96,13.07-1.2,14.75,5.88.2.83-.24,1.82.5,2.39.81-.95,2.04-1.06,3.12-1.47.2-.08.21-.5.43-.55.47-.11,2.89-.11,3.36,0,.2.05,3.17,1.77,3.47,2.02,2.3,1.92,3.76,6.94,3.41,9.88.85.13,1.64-.31,2.46-.31.97,0,2.85.78,3.7,1.26,4.15,2.3,5.72,7.27,4.86,11.83,6.52-.75,10.53,6.25,10.15,12.04-.06.85-.72,2.69-.44,3.33.18.42,2.79,2.54,3.37,3.05.97.86,2.45,2.52,3.69,3.04,3.07,1.26,6.77-.94,7.95-3.84.72-1.76.59-3.19-.12-4.93s-4.7-6.06-6.14-7.65c-.53-.59-1.62-1.01-2.01-1.93s.32-2.9,1.53-2.09l10.14,11.05c1.34.52,2.46,1.61,3.89,1.28.22-.05.22-.47.43-.55,3.49-1.39,5.21-3.71,4.69-7.69-.46-3.52-4.6-6.65-6.8-9.17-1.76-2.01-3.32-4.21-5.22-6.1-.59-1.27.77-2.53,2.19-1.31,4.3,3.71,8.08,9.49,12.5,13.33,1.33,1.16,3.02,1.29,4.74,1.03s3.85-3.07,4.36-4.64c1.44-4.46-.45-6.19-3.17-9.29-2.84-3.25-5.83-6.57-8.72-9.86-.91-1.04-3.71-2.6-2.34-4.07s2.27.57,3.05,1.33c4.7,4.6,9.33,9.24,14.02,13.84,4.86,2.05,8.96-2.49,8.95-7.18,0-4.22-3.26-6.15-5.7-8.84-10.26-11.38-20.69-22.6-31.35-33.67-2.33-2.42-3.66-6.15-7.91-4.75-7.77,6.26-17.07,15.99-27.46,8.75-4.57-3.18-5.16-8.49-1.92-12.86,4.53-6.11,10.38-11.24,15.38-16.84,3.55-3.98-4.19-4.11-6.52-3.91-5.01.42-9.46,4-13.87,5.88s-7.24,2.12-11.63,3.12c-.22.05-.18.52-.4.57-.39.09-2.11.09-2.5,0-.21-.05-.17-.5-.41-.56-6.74-1.8-13.94-6.61-20.19-9.96-21.44-11.51-42.97-23.14-64.42-34.78-6.1-3.31-12.39-7.36-18.62-10.32ZM249.84,609.53c-.57.11-1.32.48-1.77.84-1.67,1.36-5.18,6.98-5.38,9.14-.26,2.69,1.55,6.63,4.49,7.05,1.45.21,3.58,0,4.63-1.13.63-.67,2.65-3.54,3.15-4.39,1.58-2.67,2.26-5.18.96-8.15-1.1-2.53-3.3-3.87-6.09-3.36ZM267.24,618.57c-1.78-1.12-4.41-.27-5.85,1.05-1.53,1.4-6.65,8.47-7.36,10.35-.79,2.07-.78,3.56.11,5.62.79,1.83,3.19,3.81,5.21,3.78,1.02-.01,2.56-.82,3.26-1.55,1.18-1.25,6.61-8.76,7.12-10.15,1.17-3.2.49-7.22-2.48-9.09ZM279.06,630.84c-.91-.8-1.08-1.24-2.58-1.35-3.22-.23-4.64,2.11-6.36,4.38-2.46,3.25-5.71,7.15-5.03,11.38.62,3.84,5.39,6.47,8.74,3.95.93-.7,5.33-7.08,6.1-8.41,1.94-3.34,2.19-7.27-.88-9.95ZM286.11,658.71c.83-.71,3.97-4.57,4.46-5.55,1.4-2.76,1.37-7.23-1.18-9.29-1.73-1.4-4.89-1.43-6.53.12-1.11,1.05-5.12,6.54-5.45,7.9-.62,2.58.09,5.83,2.49,7.27,1.54.93,4.79.76,6.21-.46Z"/>
  <path d="M389.54,491.03l-93.04-120.17-93.9,124.23-.58-.43.29-66.62-6.75,4.64c-3.97,2.93-6.46,6.33-11.97,6.1-5.91-.25-9.35-3.62-9.99-9.46-.36-3.28.06-4.46,2.33-6.61,1.75-1.67,4.07-3.24,5.92-4.84,37.34-32.24,74.79-64.39,112.19-96.8,3.17-1.54,5.46,1.94,7.58,3.74,13.23,11.19,26.23,22.57,39.29,33.84,1.01.88,2.21,1.64,3.21,2.61.6.58.7,1.69,1.87,1.46.03-.3-.58-.6-.58-.72v-24.67c0-.07.6-1.19.66-1.23.29-.24,1.36-.34,1.8-.38,6.93-.55,17.99-.44,24.99,0,.46.03,2.63.31,2.78.48l.57,1.98-.02,50.75c1.88,1.54,3.62,3.27,5.46,4.85,11.13,9.54,23.49,18.95,34.28,28.93,2.04,1.89,2.5,2.44,2.35,5.47-.41,8.09-5.99,11.07-13.49,10.31-2.9-.3-4.08-2.28-6.17-3.77-2.64-1.88-5.94-3.65-8.2-5.93-.28-.28-.36-.57-.87-.45v62.7Z"/>
  <path d="M148.81,502.17c6.22,2.96,12.52,7.01,18.62,10.32,21.45,11.63,42.98,23.26,64.42,34.78,6.25,3.36,13.45,8.17,20.19,9.96.24.06.19.51.41.56.4.09,2.11.09,2.5,0,.22-.05.18-.52.4-.57,4.39-1,7.32-1.27,11.63-3.12s8.85-5.46,13.87-5.88c2.33-.2,10.08-.07,6.52,3.91-5,5.6-10.85,10.73-15.38,16.84-3.24,4.37-2.65,9.68,1.92,12.86,10.39,7.24,19.69-2.49,27.46-8.75,4.24-1.41,5.58,2.33,7.91,4.75,10.66,11.08,21.09,22.3,31.35,33.67,2.43,2.7,5.69,4.62,5.7,8.84.01,4.69-4.09,9.23-8.95,7.18-4.69-4.6-9.32-9.25-14.02-13.84-.78-.76-1.63-2.85-3.05-1.33s1.43,3.04,2.34,4.07c2.88,3.29,5.87,6.61,8.72,9.86s4.6,4.82,3.17,9.29c-.51,1.57-2.65,4.38-4.36,4.64s-3.41.13-4.74-1.03c-4.42-3.85-8.21-9.62-12.5-13.33-1.42-1.22-2.78.04-2.19,1.31,1.9,1.89,3.46,4.09,5.22,6.1,2.2,2.52,6.34,5.65,6.8,9.17.52,3.98-1.2,6.29-4.69,7.69-.21.08-.21.5-.43.55-1.43.33-2.54-.76-3.89-1.28l-10.14-11.05c-1.2-.81-1.91,1.19-1.53,2.09s1.48,1.34,2.01,1.93c1.44,1.59,5.45,5.96,6.14,7.65s.84,3.17.12,4.93c-1.19,2.9-4.88,5.1-7.95,3.84-1.25-.51-2.72-2.18-3.69-3.04-.57-.51-3.19-2.63-3.37-3.05-.28-.64.38-2.48.44-3.33.38-5.79-3.64-12.8-10.15-12.04.86-4.56-.71-9.52-4.86-11.83-.86-.48-2.73-1.26-3.7-1.26-.83,0-1.62.44-2.46.31.35-2.94-1.12-7.95-3.41-9.88-.3-.25-3.27-1.97-3.47-2.02-.47-.11-2.9-.11-3.36,0-.21.05-.22.47-.43.55-1.07.4-2.3.52-3.12,1.47-.74-.57-.31-1.56-.5-2.39-1.67-7.09-8.66-11.85-14.75-5.88-.82.8-1.42,2.02-2.31,2.77-.16-.88-.88-1.78-1.46-2.46-3.42-3.99-13.13-6.86-18.2-9.07-24.35-10.62-48.7-22.1-73.16-32.28-2.3-.96-6.17-1.23-6.74-4.23v-58.36c.37-3.24,3.33-1.47,5.13-.61Z"/>
  <path d="M446.97,500.09l1.08,1.67v60.12c-.38,1.23-1.27,1.03-1.97,1.46-1.72,1.06-3.99,1.92-5.81,2.68-25.12,10.48-50.17,22.1-75.06,33.27-3.31,1.49-8.98,3.12-11.66,5.13-.85.64-1.96,2.23-2.73,2.93-1.48,1.36-3.23,2.94-5.33,1.76l-8.89-10.26c-7.16-7.56-14.26-15.18-21.54-22.73-3.23-3.36-5.14-6.96-9.78-8.45-.23-.08-.22-.5-.43-.55-.41-.09-1.8-.1-2.21,0-.21.05-.17.49-.42.55-7.15,2-11.7,9.61-18.59,11.9-1.18.39-3.92.47-5.06,0-.27-.11-.29-.47-.45-.55-1.47-.73-2.58-1.16-3.19-2.85-.73-2.04-.42-3.43.79-5.14,4.75-6.71,12.11-13.66,17.6-19.83,5.21-3.82,9.7-5.61,16.43-4.61,10.44,1.55,21.86,13.47,32.47,9.65,1.17-.42,3.43-2.16,4.56-2.74,18.12-9.39,36.16-19.37,54.13-29.06,14.86-8.01,29.66-16.58,44.98-23.82.3-.14.23-.89,1.05-.5Z"/>
  <path d="M299.48,486.74l18.82-.08c1.16,0,1.22.98,1.3,1.89.78,8.79-.62,18.7,0,27.61l-.6,1.44-19.32.16c-1.16,0-1.22-.98-1.3-1.89-.78-8.79.62-18.7,0-27.6l1.09-1.52Z"/>
  <path d="M319.01,450.69l.6,1.58v27.89c-.06,1.16-.63,1.22-1.59,1.31-5.77.57-12.45-.47-18.32,0-1.16.08-1.23-1.27-1.3-2.18-.69-8.47.55-17.86,0-26.44-.24-.35.76-2.17.88-2.17h19.74Z"/>
  <path d="M273.47,487.01c.48-.25,1.01-.3,1.54-.34,5.73-.42,11.95.35,17.73,0l1.15.59.16,29.19-.59,1.15-19.03.16-1.16-.6.2-30.15Z"/>
  <path d="M293.46,450.69l.6,1.58v27.89c-.06,1.16-.63,1.22-1.59,1.31-5.68.56-12.25-.46-18.03,0-1.93-.2-.91-2.39-.98-3.65-.29-5.49-.3-11.04-.33-16.53-.01-3.55-.09-7.12.59-10.61h19.74Z"/>
  <path d="M267.24,618.57c2.97,1.87,3.65,5.9,2.48,9.09-.51,1.39-5.94,8.9-7.12,10.15-.7.74-2.24,1.54-3.26,1.55-2.02.03-4.42-1.95-5.21-3.78-.89-2.06-.9-3.55-.11-5.62.71-1.87,5.83-8.94,7.36-10.35,1.44-1.32,4.08-2.17,5.85-1.05Z"/>
  <path d="M279.06,630.84c3.07,2.68,2.82,6.61.88,9.95-.77,1.33-5.17,7.71-6.1,8.41-3.36,2.53-8.13-.11-8.74-3.95-.68-4.22,2.56-8.12,5.03-11.38,1.72-2.27,3.14-4.61,6.36-4.38,1.5.11,1.67.55,2.58,1.35Z"/>
  <path d="M286.11,658.71c-1.43,1.22-4.67,1.38-6.21.46-2.4-1.44-3.11-4.69-2.49-7.27.33-1.36,4.34-6.85,5.45-7.9,1.65-1.55,4.8-1.52,6.53-.12,2.55,2.06,2.58,6.53,1.18,9.29-.49.98-3.63,4.84-4.46,5.55Z"/>
  <path d="M249.84,609.53c2.78-.52,4.98.83,6.09,3.36,1.3,2.98.62,5.48-.96,8.15-.5.85-2.53,3.72-3.15,4.39-1.05,1.13-3.18,1.34-4.63,1.13-2.94-.42-4.75-4.36-4.49-7.05.21-2.16,3.72-7.78,5.38-9.14.45-.37,1.2-.74,1.77-.84Z"/>
</svg>